<svg width="24" height="24" viewBox="0 0 24 24" fill="none" xmlns="http://www.w3.org/2000/svg">
<path d="M21.9276 11.8535C19.9086 15.6719 16.1046 18.0438 11.9999 18.0438C10.9509 18.0436 9.90767 17.8893 8.9035 17.586C8.74479 17.5381 8.61161 17.4291 8.53324 17.2831C8.45487 17.137 8.43773 16.9658 8.4856 16.8071C8.53347 16.6484 8.64242 16.5152 8.78849 16.4368C8.93456 16.3584 9.10578 16.3413 9.26448 16.3892C10.1516 16.6572 11.0732 16.7935 11.9999 16.7938C15.5115 16.7938 18.7815 14.8238 20.6256 11.6257C19.6217 10.3901 18.6139 9.34893 17.6256 8.52705C17.5612 8.47497 17.5079 8.41063 17.4686 8.33776C17.4293 8.26488 17.4049 8.18493 17.3967 8.10254C17.3886 8.02015 17.3969 7.93697 17.4212 7.85782C17.4455 7.77868 17.4853 7.70514 17.5382 7.64149C17.5912 7.57784 17.6562 7.52535 17.7296 7.48705C17.803 7.44875 17.8833 7.42542 17.9658 7.4184C18.0483 7.41139 18.1313 7.42083 18.2101 7.44619C18.289 7.47154 18.3619 7.5123 18.4249 7.5661C19.5648 8.51408 20.7224 9.72796 21.8654 11.1741C21.9405 11.2691 21.9863 11.3839 21.9974 11.5046C22.0084 11.6252 21.9842 11.7464 21.9276 11.8535ZM19.2608 5.06243L5.63189 18.9702C5.51586 19.0885 5.35754 19.156 5.19178 19.1577C5.02601 19.1593 4.86637 19.0951 4.74797 18.9791C4.62958 18.863 4.56212 18.7047 4.56045 18.5389C4.55878 18.3732 4.62303 18.2135 4.73907 18.0951L6.35534 16.4461C4.56453 15.3567 3.08928 13.7766 2.07247 11.8535C2.0172 11.749 1.99273 11.6309 2.00187 11.5131C2.01102 11.3952 2.05342 11.2823 2.12415 11.1875C4.41469 8.11868 6.78425 6.13998 9.1667 5.3063C11.5624 4.46809 14.0061 4.75657 16.433 6.16209L18.368 4.18754C18.4841 4.06915 18.6424 4.0017 18.8081 4.00003C18.9739 3.99837 19.1335 4.06262 19.2519 4.17865C19.3703 4.29468 19.4378 4.453 19.4394 4.61876C19.4411 4.78452 19.3769 4.94416 19.2608 5.06255V5.06243ZM7.25676 15.5261L8.93115 13.8174C8.35618 13.0759 8.06927 12.1512 8.12353 11.2144C8.17779 10.2777 8.56955 9.3923 9.22629 8.72212C9.88304 8.05194 10.7603 7.64234 11.6958 7.56913C12.6312 7.49591 13.5616 7.76404 14.3146 8.32388L15.5273 7.0866C13.5031 5.99158 11.5531 5.79557 9.57952 6.48616C7.51707 7.20769 5.4288 8.93248 3.36803 11.6152C4.31855 13.2692 5.65552 14.6147 7.25676 15.5261ZM13.4281 9.22846C12.9186 8.8993 12.311 8.75621 11.7082 8.82339C11.1053 8.89058 10.5441 9.16391 10.1195 9.59716C9.69498 10.0304 9.43307 10.597 9.37811 11.2011C9.32315 11.8052 9.47851 12.4098 9.81792 12.9125L13.4281 9.22846ZM11.9999 14.0727C11.8438 14.0727 11.688 14.0589 11.5343 14.0316C11.3724 14.0055 11.2067 14.044 11.0729 14.139C10.9392 14.2339 10.8481 14.3776 10.8193 14.5391C10.7906 14.7005 10.8264 14.8668 10.9192 15.0021C11.0119 15.1374 11.1541 15.2308 11.3151 15.2621C11.9313 15.3721 12.5649 15.3315 13.162 15.1439C13.7592 14.9563 14.3021 14.6272 14.7447 14.1846C15.1873 13.742 15.5164 13.199 15.704 12.6019C15.8916 12.0048 15.9322 11.3712 15.8222 10.755C15.7912 10.5936 15.6979 10.4509 15.5625 10.3578C15.4271 10.2647 15.2604 10.2287 15.0987 10.2575C14.9369 10.2864 14.793 10.3778 14.6981 10.512C14.6032 10.6462 14.565 10.8123 14.5917 10.9745C14.6594 11.3536 14.6431 11.7429 14.5441 12.115C14.4451 12.4871 14.2658 12.833 14.0187 13.1283C13.7717 13.4237 13.4629 13.6613 13.1141 13.8244C12.7653 13.9876 12.385 14.0723 11.9999 14.0727Z" fill="#A5A5A5"/>
</svg>
